<svg xmlns="http://www.w3.org/2000/svg" xmlns:svg="http://www.w3.org/2000/svg" xmlns:xlink="http://www.w3.org/1999/xlink" id="svg2" width="48" height="48" version="1.1"><defs id="defs4"><linearGradient id="linearGradient3906"><stop style="stop-color:#000;stop-opacity:1" id="stop3908" offset="0"/><stop id="stop3914" offset=".5" style="stop-color:#000;stop-opacity:0"/><stop style="stop-color:#000;stop-opacity:1" id="stop3910" offset="1"/></linearGradient><linearGradient id="linearGradient4535"><stop style="stop-color:#fff;stop-opacity:1" id="stop4537" offset="0"/><stop style="stop-color:#fff;stop-opacity:0" id="stop4539" offset="1"/></linearGradient><linearGradient id="linearGradient3927"><stop style="stop-color:#caf8f0;stop-opacity:1" id="stop3929" offset="0"/><stop id="stop3935" offset=".5" style="stop-color:#fff;stop-opacity:1"/><stop style="stop-color:#caf8f0;stop-opacity:1" id="stop3931" offset="1"/></linearGradient><linearGradient id="linearGradient4480"><stop style="stop-color:#000;stop-opacity:0" id="stop4482" offset="0"/><stop style="stop-color:#000;stop-opacity:1" id="stop4484" offset="1"/></linearGradient><linearGradient id="linearGradient3882"><stop style="stop-color:#000;stop-opacity:1" id="stop3884" offset="0"/><stop style="stop-color:#000;stop-opacity:0" id="stop3886" offset="1"/></linearGradient><linearGradient id="linearGradient3939"><stop style="stop-color:#000;stop-opacity:.784" id="stop3941" offset="0"/><stop style="stop-color:#000;stop-opacity:0" id="stop3943" offset="1"/></linearGradient><linearGradient id="linearGradient3879"><stop style="stop-color:#fff;stop-opacity:.78431374" id="stop3881" offset="0"/><stop style="stop-color:#b4b4b4;stop-opacity:.72549021" id="stop3883" offset="1"/></linearGradient><linearGradient id="linearGradient3867"><stop style="stop-color:#5a0048;stop-opacity:1" id="stop3869" offset="0"/><stop style="stop-color:#960078;stop-opacity:1" id="stop3871" offset="1"/></linearGradient><linearGradient id="linearGradient3853"><stop id="stop3861" offset="0" style="stop-color:#8cf0eb;stop-opacity:.78431374"/><stop style="stop-color:#caf8f6;stop-opacity:.58823532" id="stop3857" offset="1"/></linearGradient><linearGradient id="linearGradient3845"><stop style="stop-color:#a08;stop-opacity:1" id="stop3847" offset="0"/><stop style="stop-color:#fa00c8;stop-opacity:1" id="stop3849" offset="1"/></linearGradient><linearGradient id="linearGradient3837"><stop style="stop-color:#fff;stop-opacity:.78431374" id="stop3839" offset="0"/><stop style="stop-color:#caf8f6;stop-opacity:0" id="stop3841" offset="1"/></linearGradient><linearGradient id="linearGradient5958"><stop style="stop-color:#caf8f6;stop-opacity:1" id="stop5960" offset="0"/><stop style="stop-color:#caf8f6;stop-opacity:0" id="stop5962" offset="1"/></linearGradient><linearGradient id="linearGradient5922"><stop style="stop-color:#c84900;stop-opacity:1" id="stop5924" offset="0"/><stop style="stop-color:#c84900;stop-opacity:.19607843" id="stop5926" offset="1"/></linearGradient><linearGradient id="linearGradient6815"><stop id="stop6817" offset="0" style="stop-color:#000;stop-opacity:1"/><stop style="stop-color:#3c3c3c;stop-opacity:.58823532" id="stop6825" offset=".402"/><stop id="stop6819" offset="1" style="stop-color:#3c3c3c;stop-opacity:0"/></linearGradient><linearGradient id="linearGradient4022"><stop id="stop4024" offset="0" style="stop-color:#204a87;stop-opacity:1"/><stop id="stop4026" offset="1" style="stop-color:#729fcf;stop-opacity:1"/></linearGradient><linearGradient id="linearGradient3723"><stop id="stop3725" offset="0" style="stop-color:#fff;stop-opacity:.78431374"/><stop id="stop3727" offset="1" style="stop-color:#fff;stop-opacity:0"/></linearGradient><linearGradient id="linearGradient3715"><stop id="stop3717" offset="0" style="stop-color:#99bbd4;stop-opacity:1"/><stop id="stop3719" offset="1" style="stop-color:#5d93ba;stop-opacity:1"/></linearGradient><linearGradient id="linearGradient3707"><stop id="stop3709" offset="0" style="stop-color:#a6c4d9;stop-opacity:.78431374"/><stop id="stop3711" offset="1" style="stop-color:#75a3c3;stop-opacity:1"/></linearGradient><linearGradient id="linearGradient3713" x1="63.766" x2="63.766" y1="949.327" y2="1029.886" gradientTransform="translate(0.2341189,5.74082)" gradientUnits="userSpaceOnUse" xlink:href="#linearGradient3707"/><linearGradient id="linearGradient3721" x1="63.766" x2="63.766" y1="936.952" y2="983.419" gradientTransform="translate(0.2341196,6.0908086)" gradientUnits="userSpaceOnUse" xlink:href="#linearGradient3715"/><linearGradient id="linearGradient3729" x1="37.376" x2="37.376" y1="948.827" y2="1030.761" gradientTransform="translate(0.2341189,5.74082)" gradientUnits="userSpaceOnUse" xlink:href="#linearGradient3723"/><linearGradient id="linearGradient3735" x1="63.766" x2="63.766" y1="936.952" y2="983.419" gradientTransform="translate(0.2341196,6.0908086)" gradientUnits="userSpaceOnUse" xlink:href="#linearGradient3715"/><linearGradient id="linearGradient3737" x1="63.766" x2="63.766" y1="949.327" y2="1029.886" gradientTransform="translate(0.2341189,5.74082)" gradientUnits="userSpaceOnUse" xlink:href="#linearGradient3707"/><linearGradient id="linearGradient3739" x1="37.376" x2="37.376" y1="948.827" y2="1030.761" gradientTransform="translate(0.2341189,5.74082)" gradientUnits="userSpaceOnUse" xlink:href="#linearGradient3723"/><linearGradient id="linearGradient3742" x1="63.766" x2="63.766" y1="949.327" y2="1029.886" gradientTransform="matrix(1.0066488,0,0,1.0066488,0.21965498,-1.1089658)" gradientUnits="userSpaceOnUse" xlink:href="#linearGradient3707"/><linearGradient id="linearGradient3744" x1="37.376" x2="37.376" y1="948.827" y2="1030.761" gradientTransform="matrix(1.0066488,0,0,1.0066488,0.21965498,-1.1089658)" gradientUnits="userSpaceOnUse" xlink:href="#linearGradient3723"/><linearGradient id="linearGradient3747" x1="63.766" x2="63.766" y1="936.952" y2="983.419" gradientTransform="matrix(1.0066488,0,0,1.0066488,0.21965567,-0.75665045)" gradientUnits="userSpaceOnUse" xlink:href="#linearGradient3715"/><linearGradient id="linearGradient3753" x1="63.766" x2="63.766" y1="936.952" y2="983.419" gradientTransform="matrix(1.0066488,0,0,1.0066488,0.21965567,-0.75665045)" gradientUnits="userSpaceOnUse" xlink:href="#linearGradient3715"/><linearGradient id="linearGradient3755" x1="63.766" x2="63.766" y1="949.327" y2="1029.886" gradientTransform="matrix(1.0066488,0,0,1.0066488,0.21965498,-1.1089658)" gradientUnits="userSpaceOnUse" xlink:href="#linearGradient3707"/><linearGradient id="linearGradient3757" x1="37.376" x2="37.376" y1="948.827" y2="1030.761" gradientTransform="matrix(1.0066488,0,0,1.0066488,0.21965498,-1.1089658)" gradientUnits="userSpaceOnUse" xlink:href="#linearGradient3723"/><linearGradient id="linearGradient4028" x1="14.992" x2="47.903" y1="1048.336" y2="1008.938" gradientTransform="matrix(0.91716429,0,0,0.91716429,2.2512556,85.18512)" gradientUnits="userSpaceOnUse" xlink:href="#linearGradient4022"/><linearGradient id="linearGradient5433" x1="-14.939" x2="-15.496" y1="166.734" y2="164.657" gradientTransform="matrix(0.71906912,0,0,0.71906912,35.096859,924.87424)" gradientUnits="userSpaceOnUse" xlink:href="#linearGradient3818"/><linearGradient id="linearGradient3818"><stop style="stop-color:#1e1e1e;stop-opacity:1" id="stop3820" offset="0"/><stop style="stop-color:#000;stop-opacity:0" id="stop3822" offset="1"/></linearGradient><radialGradient id="radialGradient5639" cx="-171.017" cy="123.886" r="29" fx="-171.017" fy="123.886" gradientTransform="matrix(0.23290796,0.98292589,-1.5211573,0.36044393,244.44953,1091.8596)" gradientUnits="userSpaceOnUse" xlink:href="#linearGradient3715-2"/><linearGradient id="linearGradient3715-2"><stop style="stop-color:#fff;stop-opacity:1" id="stop3717-4" offset="0"/><stop style="stop-color:#b3bbad;stop-opacity:1" id="stop3719-9" offset="1"/></linearGradient><radialGradient id="radialGradient5641" cx="-182.438" cy="116.192" r="28.422" fx="-182.438" fy="116.192" gradientTransform="matrix(0.30667246,1.5835715,-1.396495,0.27044345,227.36718,1219.3395)" gradientUnits="userSpaceOnUse" xlink:href="#linearGradient5299"/><linearGradient id="linearGradient5299"><stop style="stop-color:#000e50;stop-opacity:1" id="stop5301" offset="0"/><stop style="stop-color:#000;stop-opacity:1" id="stop5303" offset="1"/></linearGradient><radialGradient id="radialGradient6812" cx="-172.875" cy="119.592" r="29" fx="-172.875" fy="119.592" gradientTransform="matrix(1.0541003,0.65674043,-0.42405323,0.68062603,240.54684,45.0811)" gradientUnits="userSpaceOnUse" xlink:href="#linearGradient3715-2"/><linearGradient id="linearGradient6823" x1="27.184" x2="26.643" y1="39.631" y2="37.614" gradientTransform="translate(8.4245144,951.32919)" gradientUnits="userSpaceOnUse" xlink:href="#linearGradient6815"/><linearGradient id="linearGradient2843" x1="63.766" x2="63.766" y1="941.446" y2="965.562" gradientTransform="matrix(0.37749331,0,0,0.37749331,-0.0711918,657.55701)" gradientUnits="userSpaceOnUse" xlink:href="#linearGradient3715-6"/><linearGradient id="linearGradient3715-6"><stop id="stop3717-6" offset="0" style="stop-color:#99bbd4;stop-opacity:1"/><stop id="stop3719-4" offset="1" style="stop-color:#5d93ba;stop-opacity:1"/></linearGradient><linearGradient id="linearGradient3184" x1="63.766" x2="63.766" y1="941.446" y2="965.562" gradientTransform="matrix(-0.37749331,0,0,0.37749331,4.1838142,536.26868)" gradientUnits="userSpaceOnUse" xlink:href="#linearGradient3715-6"/><linearGradient id="linearGradient3321" x1="63.766" x2="63.766" y1="941.446" y2="965.562" gradientTransform="matrix(-0.28231332,0,0,0.28231332,64.982195,664.15172)" gradientUnits="userSpaceOnUse" xlink:href="#linearGradient3715-6"/><linearGradient id="linearGradient6823-6" x1="27.184" x2="26.643" y1="39.631" y2="37.614" gradientTransform="translate(-82.281067,1085.8147)" gradientUnits="userSpaceOnUse" xlink:href="#linearGradient6815-6"/><linearGradient id="linearGradient6815-6"><stop id="stop6817-4" offset="0" style="stop-color:#000;stop-opacity:1"/><stop style="stop-color:#3c3c3c;stop-opacity:.58823532" id="stop6825-9" offset=".402"/><stop id="stop6819-5" offset="1" style="stop-color:#3c3c3c;stop-opacity:0"/></linearGradient><radialGradient id="radialGradient5639-0" cx="-172.875" cy="119.592" r="29" fx="-172.875" fy="119.592" gradientTransform="matrix(1.0541003,0.65674043,-0.42405323,0.68062603,158.26577,1130.8958)" gradientUnits="userSpaceOnUse" xlink:href="#linearGradient3715-2-4"/><linearGradient id="linearGradient3715-2-4"><stop style="stop-color:#fff;stop-opacity:1" id="stop3717-4-8" offset="0"/><stop style="stop-color:#b3bbad;stop-opacity:1" id="stop3719-9-7" offset="1"/></linearGradient><radialGradient id="radialGradient5641-1" cx="-182.438" cy="116.192" r="28.422" fx="-182.438" fy="116.192" gradientTransform="matrix(0.30667246,1.5835715,-1.396495,0.27044345,218.94267,1272.3725)" gradientUnits="userSpaceOnUse" xlink:href="#linearGradient5299-7"/><linearGradient id="linearGradient5299-7"><stop style="stop-color:#000e50;stop-opacity:1" id="stop5301-2" offset="0"/><stop style="stop-color:#000;stop-opacity:1" id="stop5303-7" offset="1"/></linearGradient><radialGradient id="radialGradient3063" cx="-182.438" cy="116.192" r="28.422" fx="-182.438" fy="116.192" gradientTransform="matrix(0.30667246,1.5835715,-1.396495,0.27044345,136.6616,1353.825)" gradientUnits="userSpaceOnUse" xlink:href="#linearGradient5299-7"/><linearGradient id="linearGradient5928" x1="-72.844" x2="-72.844" y1="-45.656" y2="-45.944" gradientUnits="userSpaceOnUse" spreadMethod="reflect" xlink:href="#linearGradient5922"/><radialGradient id="radialGradient5964" cx="-103.705" cy="-39.276" r="20.15" fx="-103.705" fy="-39.276" gradientTransform="matrix(0.61309318,1.698523,-1.2180273,0.43965501,-77.239822,152.43381)" gradientUnits="userSpaceOnUse" xlink:href="#linearGradient5958"/><linearGradient id="linearGradient5973" x1="-72.844" x2="-72.844" y1="-45.656" y2="-45.944" gradientTransform="matrix(0.91762814,0,0,1.0003875,-5.0078269,1004.2961)" gradientUnits="userSpaceOnUse" spreadMethod="reflect" xlink:href="#linearGradient5922"/><radialGradient id="radialGradient3843" cx="-97.09" cy="-33.914" r="20" fx="-97.09" fy="-33.914" gradientTransform="matrix(-0.03337852,1.2984223,-1.7840914,0.11666088,-155.09309,1098.8832)" gradientUnits="userSpaceOnUse" xlink:href="#linearGradient3837"/><radialGradient id="radialGradient3851" cx="34.563" cy="54.419" r="13.494" fx="34.563" fy="54.419" gradientTransform="matrix(1.3458814,-1.3743665,1.2334026,1.233403,-192.05563,977.88376)" gradientUnits="userSpaceOnUse" xlink:href="#linearGradient3867"/><linearGradient id="linearGradient3859" x1="-140.893" x2="-104.171" y1="1017.7" y2="1017.908" gradientTransform="translate(44.104424,-40.169184)" gradientUnits="userSpaceOnUse" xlink:href="#linearGradient3853"/><radialGradient id="radialGradient3865" cx="-116.299" cy="-37.504" r="20" fx="-116.299" fy="-37.504" gradientTransform="matrix(-0.00108712,0.18221846,-0.82985011,4.6460161e-7,-113.08325,972.23283)" gradientUnits="userSpaceOnUse" xlink:href="#linearGradient3837"/><radialGradient id="radialGradient3875" cx="-150.649" cy="-33.68" r="19.749" fx="-150.649" fy="-33.68" gradientTransform="matrix(0.99999984,-2.6136065e-7,1.3555931e-7,0.44755236,-2.2357346,-2.665094)" gradientUnits="userSpaceOnUse" xlink:href="#linearGradient3845"/><radialGradient id="radialGradient3885" cx="30.273" cy="53.176" r="3.418" fx="30.273" fy="53.176" gradientUnits="userSpaceOnUse" xlink:href="#linearGradient3879"/><radialGradient id="radialGradient3889" cx="30.273" cy="53.176" r="3.418" fx="30.273" fy="53.176" gradientUnits="userSpaceOnUse" xlink:href="#linearGradient3879"/><radialGradient id="radialGradient3893" cx="30.273" cy="53.176" r="3.418" fx="30.273" fy="53.176" gradientUnits="userSpaceOnUse" xlink:href="#linearGradient3879"/><radialGradient id="radialGradient3897" cx="30.273" cy="53.176" r="3.418" fx="30.273" fy="53.176" gradientUnits="userSpaceOnUse" xlink:href="#linearGradient3879"/><radialGradient id="radialGradient3901" cx="30.273" cy="53.176" r="3.418" fx="30.273" fy="53.176" gradientUnits="userSpaceOnUse" xlink:href="#linearGradient3879"/><radialGradient id="radialGradient3905" cx="30.273" cy="53.176" r="3.418" fx="30.273" fy="53.176" gradientUnits="userSpaceOnUse" xlink:href="#linearGradient3879"/><radialGradient id="radialGradient3909" cx="30.273" cy="53.176" r="3.418" fx="30.273" fy="53.176" gradientUnits="userSpaceOnUse" xlink:href="#linearGradient3879"/><radialGradient id="radialGradient3913" cx="30.273" cy="53.176" r="3.418" fx="30.273" fy="53.176" gradientUnits="userSpaceOnUse" xlink:href="#linearGradient3879"/><radialGradient id="radialGradient3917" cx="30.273" cy="53.176" r="3.418" fx="30.273" fy="53.176" gradientUnits="userSpaceOnUse" xlink:href="#linearGradient3879"/><radialGradient id="radialGradient3921" cx="30.273" cy="53.176" r="3.418" fx="30.273" fy="53.176" gradientUnits="userSpaceOnUse" xlink:href="#linearGradient3879"/><linearGradient id="linearGradient3945" x1="-79.476" x2="-79.476" y1="982.835" y2="996.918" gradientTransform="translate(0.20586672,1.984673e-5)" gradientUnits="userSpaceOnUse" xlink:href="#linearGradient3939"/><radialGradient id="radialGradient3947" cx="30.273" cy="53.176" r="3.418" fx="30.273" fy="53.176" gradientUnits="userSpaceOnUse" xlink:href="#linearGradient3879"/><radialGradient id="radialGradient3949" cx="30.273" cy="53.176" r="3.418" fx="30.273" fy="53.176" gradientUnits="userSpaceOnUse" xlink:href="#linearGradient3879"/><radialGradient id="radialGradient3951" cx="30.273" cy="53.176" r="3.418" fx="30.273" fy="53.176" gradientUnits="userSpaceOnUse" xlink:href="#linearGradient3879"/><radialGradient id="radialGradient3953" cx="30.273" cy="53.176" r="3.418" fx="30.273" fy="53.176" gradientUnits="userSpaceOnUse" xlink:href="#linearGradient3879"/><radialGradient id="radialGradient3955" cx="30.273" cy="53.176" r="3.418" fx="30.273" fy="53.176" gradientUnits="userSpaceOnUse" xlink:href="#linearGradient3879"/><radialGradient id="radialGradient3957" cx="30.273" cy="53.176" r="3.418" fx="30.273" fy="53.176" gradientUnits="userSpaceOnUse" xlink:href="#linearGradient3879"/><radialGradient id="radialGradient3959" cx="30.273" cy="53.176" r="3.418" fx="30.273" fy="53.176" gradientUnits="userSpaceOnUse" xlink:href="#linearGradient3879"/><radialGradient id="radialGradient3961" cx="30.273" cy="53.176" r="3.418" fx="30.273" fy="53.176" gradientUnits="userSpaceOnUse" xlink:href="#linearGradient3879"/><radialGradient id="radialGradient3963" cx="30.273" cy="53.176" r="3.418" fx="30.273" fy="53.176" gradientUnits="userSpaceOnUse" xlink:href="#linearGradient3879"/><radialGradient id="radialGradient3965" cx="30.273" cy="53.176" r="3.418" fx="30.273" fy="53.176" gradientUnits="userSpaceOnUse" xlink:href="#linearGradient3879"/><radialGradient id="radialGradient3888" cx="-152.884" cy="-22.158" r="19.749" fx="-152.884" fy="-22.158" gradientTransform="matrix(0.13602194,8.9478727e-7,-2.3305974e-7,0.03057111,-132.08862,-21.48071)" gradientUnits="userSpaceOnUse" spreadMethod="reflect" xlink:href="#linearGradient3882"/><linearGradient id="linearGradient4486" x1="-152.884" x2="-152.884" y1="-17.455" y2="-41.023" gradientUnits="userSpaceOnUse" xlink:href="#linearGradient4480"/><radialGradient id="radialGradient5606" cx="34.563" cy="54.419" r="13.494" fx="34.563" fy="54.419" gradientTransform="matrix(1.3458814,-1.3743665,1.2334026,1.233403,-192.05563,977.88376)" gradientUnits="userSpaceOnUse" xlink:href="#linearGradient3867"/><linearGradient id="linearGradient5608" x1="-79.476" x2="-79.476" y1="982.835" y2="996.918" gradientTransform="translate(0.20586672,1.984673e-5)" gradientUnits="userSpaceOnUse" xlink:href="#linearGradient3939"/><radialGradient id="radialGradient5610" cx="-150.649" cy="-33.68" r="19.749" fx="-150.649" fy="-33.68" gradientTransform="matrix(0.99999984,-2.6136065e-7,1.3555931e-7,0.44755236,-2.2357346,-2.665094)" gradientUnits="userSpaceOnUse" xlink:href="#linearGradient3845"/><linearGradient id="linearGradient5614" x1="-72.844" x2="-72.844" y1="-45.656" y2="-45.944" gradientTransform="matrix(0.91252132,0,0,0.96973096,-5.5197559,1004.0875)" gradientUnits="userSpaceOnUse" spreadMethod="reflect" xlink:href="#linearGradient5922"/><radialGradient id="radialGradient3918" cx=".204" cy="26.467" r="15.523" fx=".204" fy="26.467" gradientTransform="matrix(1.3421662,-1.1488417,0.96457332,1.1859542,-25.598784,-3.3438458)" gradientUnits="userSpaceOnUse" xlink:href="#linearGradient3853"/><linearGradient id="linearGradient3933" x1="8.84" x2="22.066" y1="4.5" y2="4.5" gradientTransform="matrix(1.2031694,0,0,1.0551213,-87.506267,947.79452)" gradientUnits="userSpaceOnUse" xlink:href="#linearGradient3927"/><linearGradient id="linearGradient3944" x1="-173.133" x2="-132.635" y1="-22.158" y2="-22.158" gradientUnits="userSpaceOnUse" xlink:href="#linearGradient3927"/><radialGradient id="radialGradient4543" cx="15.547" cy="24" r="15.523" fx="15.547" fy="24" gradientTransform="matrix(1.1964735,-0.0427985,0.07341799,1.5784406,-98.785396,935.74813)" gradientUnits="userSpaceOnUse" xlink:href="#linearGradient4535"/><linearGradient id="linearGradient3912" x1="-85.052" x2="-71.991" y1="957.61" y2="957.61" gradientUnits="userSpaceOnUse" xlink:href="#linearGradient3906"/><linearGradient id="linearGradient3922" x1="-173.133" x2="-132.635" y1="-22.158" y2="-22.158" gradientUnits="userSpaceOnUse" xlink:href="#linearGradient3927"/><linearGradient id="linearGradient3145" x1="8.84" x2="22.066" y1="4.5" y2="4.5" gradientTransform="translate(7.9101566,0.87890131)" gradientUnits="userSpaceOnUse" xlink:href="#linearGradient3927"/><linearGradient id="linearGradient3148" x1="8.84" x2="22.066" y1="4.5" y2="4.5" gradientTransform="matrix(1.2031694,0,0,1.0551213,-97.009972,946.86576)" gradientUnits="userSpaceOnUse" xlink:href="#linearGradient3927"/><linearGradient id="linearGradient3150" x1="-173.133" x2="-132.635" y1="-22.158" y2="-22.158" gradientUnits="userSpaceOnUse" xlink:href="#linearGradient3927"/></defs><metadata id="metadata7"/><g id="layer1" transform="translate(0,-1004.3622)"><g id="g5966" transform="matrix(0.97772023,0,0,0.97772023,100.68016,77.074325)"><g id="g5597" transform="matrix(0.85483505,0,0,1,-20.035433,-2.2155805e-6)"><path id="path3067" d="m -96.780295,977.49393 c 0,11.04998 8.226372,20.01828 18.362212,20.01828 10.135841,0 18.362216,-8.9683 18.362216,-20.01828 l -36.724428,0 z" style="fill:url(#radialGradient5606);fill-opacity:1;stroke:none"/><path style="opacity:.5;fill:url(#linearGradient5608);fill-opacity:1;stroke:none" id="path3935" d="m -96.574432,977.49391 c 0,11.05 8.226376,20.0183 18.362216,20.0183 10.135841,0 18.362216,-8.9683 18.362216,-20.0183 l -36.724432,0 z"/><path style="fill:url(#radialGradient5610);fill-opacity:1;stroke:none" id="path4311" d="m -133.13494,-22.158251 c 0,2.440777 -8.84205,4.419418 -19.74928,4.419418 -10.90722,0 -19.74927,-1.978641 -19.74927,-4.419418 0,-2.440777 8.84205,-4.419417 19.74927,-4.419417 10.90723,0 19.74928,1.97864 19.74928,4.419417 z" transform="matrix(0.92927807,0,0,1.0003876,63.663518,999.66077)"/><g id="g3910" transform="matrix(0.99443476,0,0,0.96935533,-0.53979874,30.567681)"><path id="path4318" d="M 10.0625,0.21875 C 9.5192621,0.27693373 9.09375,0.85344116 9.09375,1.5625 l 0,2.59375 c 0,0.706794 0.427593,1.2818603 0.96875,1.34375 l 0,4.46875 c -5.7540013,2.820234 -9.84375,9.91868 -9.84375,18.25 0,10.803613 6.8410711,19.5625 15.3125,19.5625 8.471429,0 15.34375,-8.758887 15.34375,-19.5625 0,-8.33132 -4.089757,-15.429766 -9.84375,-18.25 l 0,-4.46875 C 21.572399,5.4384036 22,4.863044 22,4.15625 L 22,1.5625 C 22,0.84034508 21.5578,0.2585184 21,0.21875 21.037342,0.29186513 21.0625,0.36147208 21.0625,0.4375 21.0625,1.2979135 18.584434,2 15.53125,2 12.478066,2 10,1.2979135 10,0.4375 c 0,-0.0743372 0.02677,-0.14718964 0.0625,-0.21875 z" transform="matrix(1.1964735,0,0,1.0227875,-97.023365,948.41842)" style="fill:url(#radialGradient3918);fill-opacity:1;stroke:#7d7d7d;stroke-width:.38965022999999999;stroke-miterlimit:4;stroke-opacity:1;stroke-dasharray:none"/><path style="fill:url(#linearGradient3944);fill-opacity:1;stroke:#7d7d7d;stroke-opacity:1;opacity:.75" id="path3127" d="m -133.13494,-22.158251 c 0,2.440777 -8.84205,4.419418 -19.74928,4.419418 -10.90722,0 -19.74927,-1.978641 -19.74927,-4.419418 0,-2.440777 8.84205,-4.419417 19.74927,-4.419417 10.90723,0 19.74928,1.97864 19.74928,4.419417 z" transform="matrix(0.33492065,0,0,0.3605492,-27.223425,956.85737)"/><path style="opacity:.75;fill:url(#linearGradient3148);fill-opacity:1;stroke:#7d7d7d;stroke-width:.43104154;stroke-miterlimit:4;stroke-opacity:1;stroke-dasharray:none" id="path3920" d="m -84.982974,948.64215 c -0.64997,0.0595 -1.165571,0.65963 -1.165571,1.38485 l 0,2.6378 c 0,0.7229 0.518091,1.32155 1.165571,1.38485 l 0,0.46162 c 0.544843,-0.74781 3.244284,-1.3189 6.504634,-1.3189 3.36081,0 6.119682,0.60297 6.542234,1.38484 l 0.0752,0 0,-0.52756 c 0.64747,-0.063 1.16557,-0.66195 1.16557,-1.38485 l 0,-2.6378 c 0,-0.73861 -0.535775,-1.34418 -1.203169,-1.38485 0.04468,0.0748 0.0752,0.15305 0.0752,0.23081 0,0.88002 -2.964378,1.58268 -6.617432,1.58268 -3.653054,0 -6.617431,-0.70266 -6.617431,-1.58268 0,-0.076 0.03245,-0.15762 0.0752,-0.23081 z"/><path style="opacity:.75;fill:url(#radialGradient4543);fill-opacity:1;stroke:#7d7d7d;stroke-width:.4310416;stroke-miterlimit:4;stroke-opacity:1;stroke-dasharray:none" id="path4533" d="m -84.983856,948.64215 c -0.64997,0.0595 -1.15908,0.64916 -1.15908,1.37438 l 0,2.65285 c 0,0.7229 0.5116,1.31107 1.15908,1.37437 l 0,4.57058 c -6.88451,2.8845 -11.77778,10.1447 -11.77778,18.66587 0,11.04981 8.18516,20.00825 18.320999,20.00825 10.13584,0 18.35839,-8.95844 18.35839,-20.00825 0,-8.52117 -4.893286,-15.78137 -11.777786,-18.66587 l 0,-4.57058 c 0.647471,-0.063 1.159084,-0.65147 1.159084,-1.37437 l 0,-2.65285 c 0,-0.73862 -0.529081,-1.3337 -1.196474,-1.37438 0.04468,0.0748 0.07478,0.14598 0.07478,0.22374 0,0.88002 -2.96494,1.59811 -6.617994,1.59811 -3.653054,0 -6.617999,-0.71809 -6.617999,-1.59811 0,-0.076 0.032,-0.15054 0.0748,-0.22374 z"/><path id="path3916" d="m -133.13494,-22.158251 a 19.749271,4.4194174 0 1 1 -39.49855,0 19.749271,4.4194174 0 1 1 39.49855,0 z" transform="matrix(0.33492065,0,0,0.3605492,-27.236371,962.76818)" style="opacity:.5;fill:url(#linearGradient3150);fill-opacity:1;stroke:#7d7d7d;stroke-opacity:1"/></g></g><path style="fill:#fa0000;fill-opacity:1;stroke:none" id="path5146" d="m -69.333164,982.81211 0,3.65905 -6.823881,0 11.138221,11.04106 11.138216,-11.04106 -6.823877,0 0,-3.65905 -8.628679,0 z"/></g></g></svg>