<svg xmlns="http://www.w3.org/2000/svg" xmlns:svg="http://www.w3.org/2000/svg" id="svg14590" width="51.2" height="51.2" version="1.1"><metadata id="metadata14614"/><g id="layer1"><path id="path5146" fill="#fa0000" d="M6.67184 0L6.67184 3.5776L0 3.5776L10.8901 14.3726L21.7801 3.5776L15.1083 3.5776L15.1083 0Z" transform="translate(26.2199, 33.6274)"/><g id="g7049" fill="none" transform="translate(-0.222381, -0.133277)"><g id="g9629" fill="none" opacity=".5"><g id="g12681" fill="none"><path id="path9661" fill="#000" fill-rule="evenodd" d="M0 5.9062L3.67769 20.1534L15.7441 12.5448L10.8867 0Z" transform="matrix(1.81491 0 0 1.53886 1.13432 15.871)"/><path id="path9663" fill="#000" fill-rule="evenodd" d="M0 5.3072L0 15.6579L10.8867 9.7517L10.8867 0Z" transform="matrix(1.81491 0 0 1.53886 1.13432 0.864529)"/><path id="path9665" fill="#000" fill-rule="evenodd" d="M0 0L4.85734 11.2726L4.85734 22.2965L0 9.7517Z" transform="matrix(1.81491 0 0 1.53886 20.8927 0.864529)"/><path id="path9667" fill="#000" fill-rule="evenodd" d="M0 5.3072L3.67769 18.1097L15.7441 11.2726L10.8867 0Z" transform="matrix(1.81491 0 0 1.53886 1.13432 0.864529)" style="fill:#fff;fill-opacity:1;stroke:none"/><path id="path9669" fill="#000" fill-rule="evenodd" d="M0 6.8371L0 18.6325L12.0664 11.0239L12.0664 0Z" transform="matrix(1.81491 0 0 1.53886 7.809 18.2115)" style="fill:#ddd;fill-opacity:1;stroke:none"/><path id="path9671" fill="#000" fill-rule="evenodd" d="M0 0L3.67769 12.8025L3.67769 24.5979L0 10.3507Z" transform="matrix(1.81491 0 0 1.53886 1.13432 9.03156)" style="fill:#fff;fill-opacity:1;stroke:none"/><path id="path12649" fill="#000" d="M3.6302 0.99212C3.6302 1.94782 2.83287 3.19372 1.83729 3.78182C0.828177 4.37792 0 4.07312 0 3.09372C0 2.11422 0.828177 0.85052 1.83729 0.27832C2.83287 -0.28638 3.6302 0.0363202 3.6302 0.99212C3.6302 0.99212 3.6302 0.99212 3.6302 0.99212" transform="matrix(1.81491 0 0 1.53886 21.3443 21.6545)"/><path id="path9679" fill="#000" d="M3.9453 0.976363C3.9453 1.97226 3.07947 3.32506 1.9978 4.00656C0.900785 4.69776 0 4.43716 0 3.41556C0 2.39396 0.900785 1.01956 1.9978 0.354263C3.07947 -0.301737 3.9453 -0.0195374 3.9453 0.976363C3.9453 0.976363 3.9453 0.976363 3.9453 0.976363" transform="matrix(1.81491 0 0 1.53886 9.60735 36.4088)"/><path id="path10162" fill="#000" d="M4.18901 1.19624C4.6807 2.34504 4.18823 3.85194 3.02179 4.51064C1.81286 5.19344 0.473844 4.64124 0.0966028 3.34104C-0.255451 2.12774 0.388369 0.756036 1.48163 0.221536C2.54082 -0.296264 3.72827 0.119836 4.18901 1.19624C4.18901 1.19624 4.18901 1.19624 4.18901 1.19624" transform="matrix(1.81491 0 0 1.53886 10.5039 10.8555)" style="fill-opacity:1;fill:#000"/><path id="path12645" fill="#000" d="M0 0.626776C0 1.52458 0.229467 3.08518 0.519084 4.13628C0.816204 5.21458 1.06278 5.34708 1.06278 4.40678C1.06278 3.46638 0.816204 1.84498 0.519084 0.809776C0.229467 -0.199324 0 -0.271024 0 0.626776C0 0.626776 0 0.626776 0 0.626776" transform="matrix(1.81491 0 0 1.53886 1.67251 13.5882)"/><path id="path12643" fill="#000" d="M0 0.616613C0 1.54961 0.247908 3.23571 0.561083 4.41011C0.882701 5.61621 1.14986 5.82431 1.14986 4.84531C1.14986 3.86621 0.882701 2.10951 0.561083 0.950013C0.247908 -0.178987 0 -0.316387 0 0.616613C0 0.616613 0 0.616613 0 0.616613" transform="matrix(1.81491 0 0 1.53886 3.26728 22.7458)"/><path id="path10667" fill="#000" d="M0 0.606353C0 1.57745 0.268664 3.40465 0.608394 4.71965C0.957671 6.07175 1.2481 6.36825 1.2481 5.34715C1.2481 4.32605 0.957671 2.41625 0.608394 1.11485C0.268664 -0.150847 0 -0.364747 0 0.606353C0 0.606353 0 0.606353 0 0.606353" transform="matrix(1.81491 0 0 1.53886 4.99217 32.6497)"/><path id="path12632" fill="#000" stroke="#000" stroke-linecap="square" stroke-linejoin="round" stroke-width=".5" d="M12.8437 0L0 6.25L0 18.4688L4.34375 35.25L18.5625 26.2812L18.5625 13.2812Z" transform="matrix(1.54043 0 0 1.30612 1.11904 0.85371)" style="fill:none;stroke-width:.70499734;stroke-miterlimit:4;stroke-dasharray:none"/></g></g></g></g></svg>
