<svg xmlns="http://www.w3.org/2000/svg" xmlns:svg="http://www.w3.org/2000/svg" xmlns:xlink="http://www.w3.org/1999/xlink" id="svg2" width="48" height="48" version="1.1"><defs id="defs4"><linearGradient id="linearGradient5648"><stop style="stop-color:#fff;stop-opacity:0" id="stop5650" offset="0"/><stop id="stop5660" offset=".5" style="stop-color:#fff;stop-opacity:1"/><stop style="stop-color:#b3bbad;stop-opacity:0" id="stop5652" offset="1"/></linearGradient><linearGradient id="linearGradient5625"><stop style="stop-color:#232620;stop-opacity:1" id="stop5627" offset="0"/><stop style="stop-color:#232620;stop-opacity:0" id="stop5629" offset="1"/></linearGradient><linearGradient id="linearGradient5617"><stop style="stop-color:#fff;stop-opacity:.502" id="stop5619" offset="0"/><stop style="stop-color:#b3bbad;stop-opacity:0" id="stop5621" offset="1"/></linearGradient><linearGradient id="linearGradient5601"><stop style="stop-color:#fff;stop-opacity:.502" id="stop5603" offset="0"/><stop style="stop-color:#b3bbad;stop-opacity:0" id="stop5605" offset="1"/></linearGradient><linearGradient id="linearGradient5573"><stop style="stop-color:#fff;stop-opacity:0" id="stop5575" offset="0"/><stop id="stop5581" offset=".5" style="stop-color:#fff;stop-opacity:1"/><stop style="stop-color:#fff;stop-opacity:0" id="stop5577" offset="1"/></linearGradient><linearGradient id="linearGradient3988"><stop style="stop-color:#fff;stop-opacity:1" id="stop3990" offset="0"/><stop style="stop-color:#e1e1e1;stop-opacity:0" id="stop3992" offset="1"/></linearGradient><linearGradient id="linearGradient4480"><stop style="stop-color:#000;stop-opacity:0" id="stop4482" offset="0"/><stop style="stop-color:#000;stop-opacity:1" id="stop4484" offset="1"/></linearGradient><linearGradient id="linearGradient3882"><stop style="stop-color:#000;stop-opacity:1" id="stop3884" offset="0"/><stop style="stop-color:#000;stop-opacity:0" id="stop3886" offset="1"/></linearGradient><linearGradient id="linearGradient3939"><stop style="stop-color:#000;stop-opacity:.784" id="stop3941" offset="0"/><stop style="stop-color:#000;stop-opacity:0" id="stop3943" offset="1"/></linearGradient><linearGradient id="linearGradient3879"><stop style="stop-color:#fff;stop-opacity:.78431374" id="stop3881" offset="0"/><stop style="stop-color:#b4b4b4;stop-opacity:.72549021" id="stop3883" offset="1"/></linearGradient><linearGradient id="linearGradient3867"><stop style="stop-color:#5a0048;stop-opacity:1" id="stop3869" offset="0"/><stop style="stop-color:#960078;stop-opacity:1" id="stop3871" offset="1"/></linearGradient><linearGradient id="linearGradient3853"><stop style="stop-color:#caf8f6;stop-opacity:.39215687" id="stop3855" offset="0"/><stop id="stop3861" offset=".337" style="stop-color:#caf8db;stop-opacity:.58823532"/><stop style="stop-color:#caf8f6;stop-opacity:.39215687" id="stop3857" offset="1"/></linearGradient><linearGradient id="linearGradient3845"><stop style="stop-color:#a08;stop-opacity:1" id="stop3847" offset="0"/><stop style="stop-color:#fa00c8;stop-opacity:1" id="stop3849" offset="1"/></linearGradient><linearGradient id="linearGradient3837"><stop style="stop-color:#fff;stop-opacity:.78431374" id="stop3839" offset="0"/><stop style="stop-color:#caf8f6;stop-opacity:0" id="stop3841" offset="1"/></linearGradient><linearGradient id="linearGradient5958"><stop style="stop-color:#caf8f6;stop-opacity:1" id="stop5960" offset="0"/><stop style="stop-color:#caf8f6;stop-opacity:0" id="stop5962" offset="1"/></linearGradient><linearGradient id="linearGradient5922"><stop style="stop-color:#c84900;stop-opacity:1" id="stop5924" offset="0"/><stop style="stop-color:#c84900;stop-opacity:.19607843" id="stop5926" offset="1"/></linearGradient><linearGradient id="linearGradient6815"><stop id="stop6817" offset="0" style="stop-color:#000;stop-opacity:1"/><stop style="stop-color:#3c3c3c;stop-opacity:.58823532" id="stop6825" offset=".402"/><stop id="stop6819" offset="1" style="stop-color:#3c3c3c;stop-opacity:0"/></linearGradient><linearGradient id="linearGradient4022"><stop id="stop4024" offset="0" style="stop-color:#204a87;stop-opacity:1"/><stop id="stop4026" offset="1" style="stop-color:#729fcf;stop-opacity:1"/></linearGradient><linearGradient id="linearGradient3723"><stop id="stop3725" offset="0" style="stop-color:#fff;stop-opacity:.78431374"/><stop id="stop3727" offset="1" style="stop-color:#fff;stop-opacity:0"/></linearGradient><linearGradient id="linearGradient3715"><stop id="stop3717" offset="0" style="stop-color:#99bbd4;stop-opacity:1"/><stop id="stop3719" offset="1" style="stop-color:#5d93ba;stop-opacity:1"/></linearGradient><linearGradient id="linearGradient3707"><stop id="stop3709" offset="0" style="stop-color:#a6c4d9;stop-opacity:.78431374"/><stop id="stop3711" offset="1" style="stop-color:#75a3c3;stop-opacity:1"/></linearGradient><linearGradient id="linearGradient3713" x1="63.766" x2="63.766" y1="949.327" y2="1029.886" gradientTransform="translate(0.2341189,5.74082)" gradientUnits="userSpaceOnUse" xlink:href="#linearGradient3707"/><linearGradient id="linearGradient3721" x1="63.766" x2="63.766" y1="936.952" y2="983.419" gradientTransform="translate(0.2341196,6.0908086)" gradientUnits="userSpaceOnUse" xlink:href="#linearGradient3715"/><linearGradient id="linearGradient3729" x1="37.376" x2="37.376" y1="948.827" y2="1030.761" gradientTransform="translate(0.2341189,5.74082)" gradientUnits="userSpaceOnUse" xlink:href="#linearGradient3723"/><linearGradient id="linearGradient3735" x1="63.766" x2="63.766" y1="936.952" y2="983.419" gradientTransform="translate(0.2341196,6.0908086)" gradientUnits="userSpaceOnUse" xlink:href="#linearGradient3715"/><linearGradient id="linearGradient3737" x1="63.766" x2="63.766" y1="949.327" y2="1029.886" gradientTransform="translate(0.2341189,5.74082)" gradientUnits="userSpaceOnUse" xlink:href="#linearGradient3707"/><linearGradient id="linearGradient3739" x1="37.376" x2="37.376" y1="948.827" y2="1030.761" gradientTransform="translate(0.2341189,5.74082)" gradientUnits="userSpaceOnUse" xlink:href="#linearGradient3723"/><linearGradient id="linearGradient3742" x1="63.766" x2="63.766" y1="949.327" y2="1029.886" gradientTransform="matrix(1.0066488,0,0,1.0066488,0.21965498,-1.1089658)" gradientUnits="userSpaceOnUse" xlink:href="#linearGradient3707"/><linearGradient id="linearGradient3744" x1="37.376" x2="37.376" y1="948.827" y2="1030.761" gradientTransform="matrix(1.0066488,0,0,1.0066488,0.21965498,-1.1089658)" gradientUnits="userSpaceOnUse" xlink:href="#linearGradient3723"/><linearGradient id="linearGradient3747" x1="63.766" x2="63.766" y1="936.952" y2="983.419" gradientTransform="matrix(1.0066488,0,0,1.0066488,0.21965567,-0.75665045)" gradientUnits="userSpaceOnUse" xlink:href="#linearGradient3715"/><linearGradient id="linearGradient3753" x1="63.766" x2="63.766" y1="936.952" y2="983.419" gradientTransform="matrix(1.0066488,0,0,1.0066488,0.21965567,-0.75665045)" gradientUnits="userSpaceOnUse" xlink:href="#linearGradient3715"/><linearGradient id="linearGradient3755" x1="63.766" x2="63.766" y1="949.327" y2="1029.886" gradientTransform="matrix(1.0066488,0,0,1.0066488,0.21965498,-1.1089658)" gradientUnits="userSpaceOnUse" xlink:href="#linearGradient3707"/><linearGradient id="linearGradient3757" x1="37.376" x2="37.376" y1="948.827" y2="1030.761" gradientTransform="matrix(1.0066488,0,0,1.0066488,0.21965498,-1.1089658)" gradientUnits="userSpaceOnUse" xlink:href="#linearGradient3723"/><linearGradient id="linearGradient4028" x1="14.992" x2="47.903" y1="1048.336" y2="1008.938" gradientTransform="matrix(0.91716429,0,0,0.91716429,2.2512556,85.18512)" gradientUnits="userSpaceOnUse" xlink:href="#linearGradient4022"/><linearGradient id="linearGradient5433" x1="-14.939" x2="-15.496" y1="166.734" y2="164.657" gradientTransform="matrix(0.71906912,0,0,0.71906912,35.096859,924.87424)" gradientUnits="userSpaceOnUse" xlink:href="#linearGradient3818"/><linearGradient id="linearGradient3818"><stop style="stop-color:#1e1e1e;stop-opacity:1" id="stop3820" offset="0"/><stop style="stop-color:#000;stop-opacity:0" id="stop3822" offset="1"/></linearGradient><radialGradient id="radialGradient5639" cx="-171.017" cy="123.886" r="29" fx="-171.017" fy="123.886" gradientTransform="matrix(0.23290796,0.98292589,-1.5211573,0.36044393,244.44953,1091.8596)" gradientUnits="userSpaceOnUse" xlink:href="#linearGradient3715-2"/><linearGradient id="linearGradient3715-2"><stop style="stop-color:#fff;stop-opacity:1" id="stop3717-4" offset="0"/><stop style="stop-color:#b3bbad;stop-opacity:1" id="stop3719-9" offset="1"/></linearGradient><radialGradient id="radialGradient5641" cx="-182.438" cy="116.192" r="28.422" fx="-182.438" fy="116.192" gradientTransform="matrix(0.30667246,1.5835715,-1.396495,0.27044345,227.36718,1219.3395)" gradientUnits="userSpaceOnUse" xlink:href="#linearGradient5299"/><linearGradient id="linearGradient5299"><stop style="stop-color:#000e50;stop-opacity:1" id="stop5301" offset="0"/><stop style="stop-color:#000;stop-opacity:1" id="stop5303" offset="1"/></linearGradient><radialGradient id="radialGradient6812" cx="-172.875" cy="119.592" r="29" fx="-172.875" fy="119.592" gradientTransform="matrix(1.0541003,0.65674043,-0.42405323,0.68062603,240.54684,45.0811)" gradientUnits="userSpaceOnUse" xlink:href="#linearGradient3715-2"/><linearGradient id="linearGradient6823" x1="27.184" x2="26.643" y1="39.631" y2="37.614" gradientTransform="translate(8.4245144,951.32919)" gradientUnits="userSpaceOnUse" xlink:href="#linearGradient6815"/><linearGradient id="linearGradient2843" x1="63.766" x2="63.766" y1="941.446" y2="965.562" gradientTransform="matrix(0.37749331,0,0,0.37749331,-0.0711918,657.55701)" gradientUnits="userSpaceOnUse" xlink:href="#linearGradient3715-6"/><linearGradient id="linearGradient3715-6"><stop id="stop3717-6" offset="0" style="stop-color:#99bbd4;stop-opacity:1"/><stop id="stop3719-4" offset="1" style="stop-color:#5d93ba;stop-opacity:1"/></linearGradient><linearGradient id="linearGradient3184" x1="63.766" x2="63.766" y1="941.446" y2="965.562" gradientTransform="matrix(-0.37749331,0,0,0.37749331,4.1838142,536.26868)" gradientUnits="userSpaceOnUse" xlink:href="#linearGradient3715-6"/><linearGradient id="linearGradient3321" x1="63.766" x2="63.766" y1="941.446" y2="965.562" gradientTransform="matrix(-0.28231332,0,0,0.28231332,64.982195,664.15172)" gradientUnits="userSpaceOnUse" xlink:href="#linearGradient3715-6"/><linearGradient id="linearGradient6823-6" x1="27.184" x2="26.643" y1="39.631" y2="37.614" gradientTransform="translate(-82.281067,1085.8147)" gradientUnits="userSpaceOnUse" xlink:href="#linearGradient6815-6"/><linearGradient id="linearGradient6815-6"><stop id="stop6817-4" offset="0" style="stop-color:#000;stop-opacity:1"/><stop style="stop-color:#3c3c3c;stop-opacity:.58823532" id="stop6825-9" offset=".402"/><stop id="stop6819-5" offset="1" style="stop-color:#3c3c3c;stop-opacity:0"/></linearGradient><radialGradient id="radialGradient5639-0" cx="-172.875" cy="119.592" r="29" fx="-172.875" fy="119.592" gradientTransform="matrix(1.0541003,0.65674043,-0.42405323,0.68062603,158.26577,1130.8958)" gradientUnits="userSpaceOnUse" xlink:href="#linearGradient3715-2-4"/><linearGradient id="linearGradient3715-2-4"><stop style="stop-color:#fff;stop-opacity:1" id="stop3717-4-8" offset="0"/><stop style="stop-color:#b3bbad;stop-opacity:1" id="stop3719-9-7" offset="1"/></linearGradient><radialGradient id="radialGradient5641-1" cx="-182.438" cy="116.192" r="28.422" fx="-182.438" fy="116.192" gradientTransform="matrix(0.30667246,1.5835715,-1.396495,0.27044345,218.94267,1272.3725)" gradientUnits="userSpaceOnUse" xlink:href="#linearGradient5299-7"/><linearGradient id="linearGradient5299-7"><stop style="stop-color:#000e50;stop-opacity:1" id="stop5301-2" offset="0"/><stop style="stop-color:#000;stop-opacity:1" id="stop5303-7" offset="1"/></linearGradient><radialGradient id="radialGradient3063" cx="-182.438" cy="116.192" r="28.422" fx="-182.438" fy="116.192" gradientTransform="matrix(0.30667246,1.5835715,-1.396495,0.27044345,136.6616,1353.825)" gradientUnits="userSpaceOnUse" xlink:href="#linearGradient5299-7"/><linearGradient id="linearGradient5928" x1="-72.844" x2="-72.844" y1="-45.656" y2="-45.944" gradientUnits="userSpaceOnUse" spreadMethod="reflect" xlink:href="#linearGradient5922"/><radialGradient id="radialGradient5964" cx="-103.705" cy="-39.276" r="20.15" fx="-103.705" fy="-39.276" gradientTransform="matrix(0.61309318,1.698523,-1.2180273,0.43965501,-77.239822,152.43381)" gradientUnits="userSpaceOnUse" xlink:href="#linearGradient5958"/><linearGradient id="linearGradient5973" x1="-72.844" x2="-72.844" y1="-45.656" y2="-45.944" gradientTransform="matrix(0.91762814,0,0,1.0003875,-5.0078269,1004.2961)" gradientUnits="userSpaceOnUse" spreadMethod="reflect" xlink:href="#linearGradient5922"/><radialGradient id="radialGradient3843" cx="-97.09" cy="-33.914" r="20" fx="-97.09" fy="-33.914" gradientTransform="matrix(-0.03337852,1.2984223,-1.7840914,0.11666088,-155.09309,1098.8832)" gradientUnits="userSpaceOnUse" xlink:href="#linearGradient3837"/><radialGradient id="radialGradient3851" cx="34.563" cy="54.419" r="13.494" fx="34.563" fy="54.419" gradientTransform="matrix(1.3458814,-1.3743665,1.2334026,1.233403,-192.05563,977.88376)" gradientUnits="userSpaceOnUse" xlink:href="#linearGradient3867"/><linearGradient id="linearGradient3859" x1="-140.893" x2="-104.171" y1="1017.7" y2="1017.908" gradientTransform="translate(44.104424,-40.169184)" gradientUnits="userSpaceOnUse" xlink:href="#linearGradient3853"/><radialGradient id="radialGradient3865" cx="-116.299" cy="-37.504" r="20" fx="-116.299" fy="-37.504" gradientTransform="matrix(-0.00108712,0.18221846,-0.82985011,4.6460161e-7,-113.08325,972.23283)" gradientUnits="userSpaceOnUse" xlink:href="#linearGradient3837"/><radialGradient id="radialGradient3875" cx="-150.649" cy="-33.68" r="19.749" fx="-150.649" fy="-33.68" gradientTransform="matrix(0.99999984,-2.6136065e-7,1.3555931e-7,0.44755236,-2.2357346,-2.665094)" gradientUnits="userSpaceOnUse" xlink:href="#linearGradient3845"/><radialGradient id="radialGradient3885" cx="30.273" cy="53.176" r="3.418" fx="30.273" fy="53.176" gradientUnits="userSpaceOnUse" xlink:href="#linearGradient3879"/><radialGradient id="radialGradient3889" cx="30.273" cy="53.176" r="3.418" fx="30.273" fy="53.176" gradientUnits="userSpaceOnUse" xlink:href="#linearGradient3879"/><radialGradient id="radialGradient3893" cx="30.273" cy="53.176" r="3.418" fx="30.273" fy="53.176" gradientUnits="userSpaceOnUse" xlink:href="#linearGradient3879"/><radialGradient id="radialGradient3897" cx="30.273" cy="53.176" r="3.418" fx="30.273" fy="53.176" gradientUnits="userSpaceOnUse" xlink:href="#linearGradient3879"/><radialGradient id="radialGradient3901" cx="30.273" cy="53.176" r="3.418" fx="30.273" fy="53.176" gradientUnits="userSpaceOnUse" xlink:href="#linearGradient3879"/><radialGradient id="radialGradient3905" cx="30.273" cy="53.176" r="3.418" fx="30.273" fy="53.176" gradientUnits="userSpaceOnUse" xlink:href="#linearGradient3879"/><radialGradient id="radialGradient3909" cx="30.273" cy="53.176" r="3.418" fx="30.273" fy="53.176" gradientUnits="userSpaceOnUse" xlink:href="#linearGradient3879"/><radialGradient id="radialGradient3913" cx="30.273" cy="53.176" r="3.418" fx="30.273" fy="53.176" gradientUnits="userSpaceOnUse" xlink:href="#linearGradient3879"/><radialGradient id="radialGradient3917" cx="30.273" cy="53.176" r="3.418" fx="30.273" fy="53.176" gradientUnits="userSpaceOnUse" xlink:href="#linearGradient3879"/><radialGradient id="radialGradient3921" cx="30.273" cy="53.176" r="3.418" fx="30.273" fy="53.176" gradientUnits="userSpaceOnUse" xlink:href="#linearGradient3879"/><linearGradient id="linearGradient3945" x1="-79.476" x2="-79.476" y1="982.835" y2="996.918" gradientTransform="translate(0.20586672,1.984673e-5)" gradientUnits="userSpaceOnUse" xlink:href="#linearGradient3939"/><radialGradient id="radialGradient3947" cx="30.273" cy="53.176" r="3.418" fx="30.273" fy="53.176" gradientUnits="userSpaceOnUse" xlink:href="#linearGradient3879"/><radialGradient id="radialGradient3949" cx="30.273" cy="53.176" r="3.418" fx="30.273" fy="53.176" gradientUnits="userSpaceOnUse" xlink:href="#linearGradient3879"/><radialGradient id="radialGradient3951" cx="30.273" cy="53.176" r="3.418" fx="30.273" fy="53.176" gradientUnits="userSpaceOnUse" xlink:href="#linearGradient3879"/><radialGradient id="radialGradient3953" cx="30.273" cy="53.176" r="3.418" fx="30.273" fy="53.176" gradientUnits="userSpaceOnUse" xlink:href="#linearGradient3879"/><radialGradient id="radialGradient3955" cx="30.273" cy="53.176" r="3.418" fx="30.273" fy="53.176" gradientUnits="userSpaceOnUse" xlink:href="#linearGradient3879"/><radialGradient id="radialGradient3957" cx="30.273" cy="53.176" r="3.418" fx="30.273" fy="53.176" gradientUnits="userSpaceOnUse" xlink:href="#linearGradient3879"/><radialGradient id="radialGradient3959" cx="30.273" cy="53.176" r="3.418" fx="30.273" fy="53.176" gradientUnits="userSpaceOnUse" xlink:href="#linearGradient3879"/><radialGradient id="radialGradient3961" cx="30.273" cy="53.176" r="3.418" fx="30.273" fy="53.176" gradientUnits="userSpaceOnUse" xlink:href="#linearGradient3879"/><radialGradient id="radialGradient3963" cx="30.273" cy="53.176" r="3.418" fx="30.273" fy="53.176" gradientUnits="userSpaceOnUse" xlink:href="#linearGradient3879"/><radialGradient id="radialGradient3965" cx="30.273" cy="53.176" r="3.418" fx="30.273" fy="53.176" gradientUnits="userSpaceOnUse" xlink:href="#linearGradient3879"/><radialGradient id="radialGradient3888" cx="-152.884" cy="-22.158" r="19.749" fx="-152.884" fy="-22.158" gradientTransform="matrix(0.13602194,8.9478727e-7,-2.3305974e-7,0.03057111,-132.08862,-21.48071)" gradientUnits="userSpaceOnUse" spreadMethod="reflect" xlink:href="#linearGradient3882"/><linearGradient id="linearGradient4486" x1="-152.884" x2="-152.884" y1="-17.455" y2="-41.023" gradientUnits="userSpaceOnUse" xlink:href="#linearGradient4480"/><radialGradient id="radialGradient5606" cx="34.563" cy="54.419" r="13.494" fx="34.563" fy="54.419" gradientTransform="matrix(1.3458814,-1.3743665,1.2334026,1.233403,-192.05563,977.88376)" gradientUnits="userSpaceOnUse" xlink:href="#linearGradient3867"/><linearGradient id="linearGradient5608" x1="-79.476" x2="-79.476" y1="982.835" y2="996.918" gradientTransform="translate(0.20586672,1.984673e-5)" gradientUnits="userSpaceOnUse" xlink:href="#linearGradient3939"/><radialGradient id="radialGradient5610" cx="-150.649" cy="-33.68" r="19.749" fx="-150.649" fy="-33.68" gradientTransform="matrix(0.99999984,-2.6136065e-7,1.3555931e-7,0.44755236,-2.2357346,-2.665094)" gradientUnits="userSpaceOnUse" xlink:href="#linearGradient3845"/><linearGradient id="linearGradient5612" x1="-140.893" x2="-104.171" y1="1017.7" y2="1017.908" gradientTransform="translate(44.104424,-40.169184)" gradientUnits="userSpaceOnUse" xlink:href="#linearGradient3853"/><linearGradient id="linearGradient5614" x1="-72.844" x2="-72.844" y1="-45.656" y2="-45.944" gradientTransform="matrix(0.91762814,0,0,1.0003875,-5.0078269,1004.2961)" gradientUnits="userSpaceOnUse" spreadMethod="reflect" xlink:href="#linearGradient5922"/><radialGradient id="radialGradient5616" cx="-116.299" cy="-37.504" r="20" fx="-116.299" fy="-37.504" gradientTransform="matrix(-0.00108712,0.18221846,-0.82985011,4.6460161e-7,-113.08325,972.23283)" gradientUnits="userSpaceOnUse" xlink:href="#linearGradient3837"/><radialGradient id="radialGradient5618" cx="-97.09" cy="-33.914" r="20" fx="-97.09" fy="-33.914" gradientTransform="matrix(-0.03337852,1.2984223,-1.7840914,0.11666088,-155.09309,1098.8832)" gradientUnits="userSpaceOnUse" xlink:href="#linearGradient3837"/><linearGradient id="linearGradient4742" x1="176.038" x2="174.537" y1="100.833" y2="95.231" gradientUnits="userSpaceOnUse" spreadMethod="reflect" xlink:href="#linearGradient4676"/><linearGradient id="linearGradient4676"><stop style="stop-color:#d07200;stop-opacity:1" id="stop4678" offset="0"/><stop style="stop-color:#603500;stop-opacity:1" id="stop4680" offset="1"/></linearGradient><linearGradient id="linearGradient4744" x1="108.457" x2="317.442" y1="276.111" y2="267.093" gradientUnits="userSpaceOnUse" xlink:href="#linearGradient4691"/><linearGradient id="linearGradient4691"><stop style="stop-color:#fff;stop-opacity:1" id="stop4693" offset="0"/><stop style="stop-color:#ccc;stop-opacity:0" id="stop4695" offset="1"/></linearGradient><linearGradient id="linearGradient4746" x1="144.941" x2="176.038" y1="42.471" y2="42.471" gradientUnits="userSpaceOnUse" xlink:href="#linearGradient4713"/><linearGradient id="linearGradient4713"><stop style="stop-color:#000;stop-opacity:1" id="stop4715" offset="0"/><stop id="stop4721" offset=".5" style="stop-color:#707070;stop-opacity:0"/><stop style="stop-color:#000;stop-opacity:1" id="stop4717" offset="1"/></linearGradient><radialGradient id="radialGradient4748" cx="574.219" cy="-86.719" r="77.494" fx="574.219" fy="-86.719" gradientUnits="userSpaceOnUse" xlink:href="#linearGradient4723"/><linearGradient id="linearGradient4723"><stop style="stop-color:#969696;stop-opacity:1" id="stop4725" offset="0"/><stop style="stop-color:#ccc;stop-opacity:1" id="stop4727" offset="1"/></linearGradient><radialGradient id="radialGradient4750" cx="574.219" cy="-86.719" r="77.344" fx="574.219" fy="-86.719" gradientUnits="userSpaceOnUse" xlink:href="#linearGradient4653"/><linearGradient id="linearGradient4653"><stop style="stop-color:#fa00c8;stop-opacity:1" id="stop4655" offset="0"/><stop style="stop-color:#a08;stop-opacity:1" id="stop4657" offset="1"/></linearGradient><linearGradient id="linearGradient3994" x1="158.174" x2="164.403" y1="472.025" y2="-57.186" gradientUnits="userSpaceOnUse" xlink:href="#linearGradient3988"/><linearGradient id="linearGradient5579" x1="26.599" x2="26.599" y1="17.959" y2="23.968" gradientUnits="userSpaceOnUse" xlink:href="#linearGradient5573"/><linearGradient id="linearGradient5607" x1="19.281" x2="16.281" y1="14.203" y2="14.203" gradientUnits="userSpaceOnUse" xlink:href="#linearGradient5601"/><linearGradient id="linearGradient5623" x1="16.281" x2="4.693" y1="12.452" y2="12.452" gradientUnits="userSpaceOnUse" xlink:href="#linearGradient5617"/><radialGradient id="radialGradient5631" cx="27.25" cy="27.83" r="12.656" fx="27.25" fy="27.83" gradientTransform="matrix(1.6395061,0,0,1.3429653,-17.42654,-9.5446668)" gradientUnits="userSpaceOnUse" xlink:href="#linearGradient5625"/><linearGradient id="linearGradient5658" x1="21.75" x2="32.75" y1="28.172" y2="28.172" gradientUnits="userSpaceOnUse" xlink:href="#linearGradient5648"/></defs><metadata id="metadata7"/><g id="layer1" transform="translate(0,-1004.3622)"><g id="g5966" transform="matrix(0.97772023,0,0,0.97772023,100.68016,77.074325)"><path style="fill:#fa0000;fill-opacity:1;stroke:none" id="path5146" d="m -69.333164,982.81214 0,3.65905 -6.823877,0 11.138217,11.04103 11.138216,-11.04103 -6.823877,0 0,-3.65905 -8.628679,0 z"/><g id="g5025" transform="translate(-5.0241951,57.212699)"><path style="fill:#b3bbad;fill-opacity:1;stroke:#232323;stroke-opacity:1;stroke-width:.30683623999999998;stroke-miterlimit:4;stroke-dasharray:none" id="path5039" d="m -62.204584,922.76343 c -0.764629,-0.0254 -1.435388,-0.0755 -1.490577,-0.1112 -0.213728,-0.13845 -2.594071,-0.39014 -4.472877,-0.47298 -3.232556,-0.1425 -7.048705,0.0235 -8.650162,0.37642 -0.646264,0.14239 -5.315588,0.17498 -5.784921,0.0404 -0.331528,-0.0951 -0.411165,-0.19993 -0.41285,-0.54357 l 1.188955,-4.04337 c 1.387956,-1.60942 1.303411,-1.54945 2.756089,-1.95517 2.127905,-0.59433 2.975048,-1.10546 3.218162,-1.94175 0.209608,-0.72102 0.131416,-1.72413 -0.187524,-2.40569 -0.404882,-0.8652 -1.070458,-1.48506 -1.838434,-1.71214 -0.515163,-0.15235 -1.910354,-0.31446 -3.421152,-0.39751 -1.608499,-0.0885 -2.414828,-0.17538 -3.473317,-0.37451 -2.516588,-0.4734 -5.957075,-1.92345 -8.368026,-3.52686 -1.456904,-0.96891 -3.393709,-2.55988 -3.820406,-3.13824 -0.249479,-0.33814 -0.272532,-0.77339 -0.04732,-0.8939 0.107386,-0.0575 0.877671,-0.0456 2.473806,0.0383 3.29192,0.17297 7.528212,0.26118 10.60038,0.22072 l 2.63981,-0.0347 0.113525,-0.27173 c 0.127272,-0.30459 0.195916,-0.32237 1.538768,-0.39874 0.933077,-0.0531 1.156198,-0.1581 1.189526,-0.56002 0.01777,-0.21398 0.07881,-0.33444 0.203263,-0.40105 l 28.931317,0.0575 c 0.133807,0.0827 0.09208,1.35581 -0.04957,1.51233 -0.069,0.0762 -0.162395,0.37354 -0.207547,0.66066 -0.116236,0.73916 -0.14091,0.79541 -0.409874,0.93449 -0.132336,0.0684 -0.838135,0.21545 -1.568441,0.32669 -5.154543,0.78521 -6.454756,1.11266 -8.304771,2.09157 -2.876054,1.52183 -4.697572,3.49365 -5.135498,5.55928 -0.16186,0.76349 -0.115178,2.22469 0.08923,2.79297 0.282701,0.78596 1.144742,1.30738 3.113294,1.88311 0.676842,0.19795 1.289563,0.39349 1.3616,0.43454 0.260822,0.14863 2.734034,2.6172 2.909382,2.90395 l 0.179898,0.29417 0.206549,2.67694 c -0.384494,0.47459 -0.942705,0.51634 -5.070269,0.37917 z"/><path style="fill:url(#linearGradient5658);fill-opacity:1;stroke:none;stroke-width:.30000000999999998;stroke-miterlimit:4;stroke-opacity:1;stroke-dasharray:none;opacity:.5" id="path5633" d="M 27.25 25.75 C 24.46221 25.75 22.150905 27.823906 21.75 30.5 C 23.602479 30.27161 26.528846 30.166804 29.125 30.28125 C 30.394562 30.337227 31.872651 30.46925 32.75 30.59375 C 32.39115 27.870236 30.0715 25.75 27.25 25.75 z" transform="matrix(1.0227875,0,0,1.0227875,-97.950211,891.20572)"/><path style="fill:url(#radialGradient5631);fill-opacity:1;opacity:.5" id="path5556" d="M 17.21875 24.75 C 16.846705 24.974307 16.507371 25.340532 15.75 26.21875 L 14.59375 30.15625 C 14.595397 30.492234 14.675858 30.594519 15 30.6875 C 15.458876 30.819082 20.024385 30.795468 20.65625 30.65625 C 20.935853 30.594633 21.347287 30.54965 21.75 30.5 C 22.150905 27.823906 24.46221 25.75 27.25 25.75 C 30.0715 25.75 32.39115 27.870236 32.75 30.59375 C 33.142099 30.649391 33.435456 30.708189 33.5 30.75 C 33.553959 30.784905 34.189907 30.818916 34.9375 30.84375 C 38.973103 30.977864 39.530322 30.932766 39.90625 30.46875 L 39.71875 27.875 L 39.53125 27.59375 C 39.359809 27.313389 36.942511 24.895319 36.6875 24.75 L 17.21875 24.75 z" transform="matrix(1.0227875,0,0,1.0227875,-97.950211,891.20572)"/><path style="fill:url(#linearGradient5579);fill-opacity:1;opacity:.5" id="path5569" d="M 18.3125 18.15625 C 18.901129 18.224644 19.373157 18.300522 19.625 18.375 C 20.375866 18.597021 21.010389 19.185326 21.40625 20.03125 C 21.718084 20.697625 21.798688 21.701294 21.59375 22.40625 C 21.456486 22.878427 21.090019 23.23209 20.4375 23.5625 L 33.40625 23.5625 C 32.822119 23.242035 32.465508 22.894141 32.3125 22.46875 C 32.112646 21.913131 32.060496 20.49648 32.21875 19.75 C 32.33282 19.211951 32.543737 18.674694 32.84375 18.15625 L 18.3125 18.15625 z" transform="matrix(1.0227875,0,0,1.0227875,-97.950211,891.20572)"/><path style="fill:url(#linearGradient5607);fill-opacity:1" id="path5585" d="m 19.28125,8.84375 c -0.002,6.908e-4 -0.02994,-7.028e-4 -0.03125,0 -0.12168,0.065126 -0.170126,0.1970374 -0.1875,0.40625 -0.03259,0.3929653 -0.243962,0.4793331 -1.15625,0.53125 -1.312934,0.074668 -1.375564,0.1084462 -1.5,0.40625 l -0.125,0.25 0,7.53125 c 1.283228,0.07054 2.377377,0.213472 3,0.34375 z" transform="matrix(1.0227875,0,0,1.0227875,-97.950211,891.20572)"/><path style="fill:url(#linearGradient5623);fill-opacity:1" id="path5611" d="M 16.4375 10.125 C 16.427172 10.146118 16.41662 10.162683 16.40625 10.1875 L 16.28125 10.4375 L 13.71875 10.46875 C 10.715029 10.508309 6.5623269 10.419116 3.34375 10.25 C 1.7831765 10.167969 1.0112435 10.162531 0.90625 10.21875 C 0.68605566 10.336575 0.72482932 10.763144 0.96875 11.09375 C 1.3859403 11.659224 3.2630555 13.208927 4.6875 14.15625 C 7.0447357 15.723936 10.414481 17.162147 12.875 17.625 C 13.909906 17.819693 14.708588 17.882222 16.28125 17.96875 C 16.337583 17.971847 16.381537 17.965433 16.4375 17.96875 L 16.4375 10.125 z" transform="matrix(1.0227875,0,0,1.0227875,-97.950211,891.20572)"/></g></g></g></svg>